<svg aria-hidden="true" style="position: absolute; width: 0; height: 0; overflow: hidden;" version="1.1" xmlns="http://www.w3.org/2000/svg" xmlns:xlink="http://www.w3.org/1999/xlink">
<defs>
<symbol id="chevron" viewBox="0 0 9 6"><path fill-rule="evenodd" clip-rule="evenodd" d="M8.76381 0.892804C8.96756 1.09656 8.96756 1.4269 8.76381 1.63065L5.28555 5.10892C5.0818 5.31267 4.75145 5.31267 4.5477 5.10892L1.06944 1.63065C0.865688 1.4269 0.865688 1.09656 1.06944 0.892804C1.27319 0.689052 1.60354 0.689052 1.80729 0.892804L4.91663 4.00214L8.02596 0.892804C8.22971 0.689052 8.56006 0.689052 8.76381 0.892804Z"/>
</symbol>
<symbol id="edit" viewBox="0 0 32 32">
<path d="M27 0c2.761 0 5 2.239 5 5 0 1.126-0.372 2.164-1 3l-2 2-7-7 2-2c0.836-0.628 1.874-1 3-1zM2 23l-2 9 9-2 18.5-18.5-7-7-18.5 18.5zM22.362 11.362l-14 14-1.724-1.724 14-14 1.724 1.724z"></path>
</symbol>
<symbol id="search" viewBox="0 0 20 20" stroke-width="1.8" stroke-linecap="round" stroke-linejoin="round">
    <path
        d="M9.16667 15.8333C12.8486 15.8333 15.8333 12.8486 15.8333 9.16667C15.8333 5.48477 12.8486 2.5 9.16667 2.5C5.48477 2.5 2.5 5.48477 2.5 9.16667C2.5 12.8486 5.48477 15.8333 9.16667 15.8333Z"
         />
    <path d="M17.5 17.5L13.875 13.875"/>
</symbol>
</defs>
</svg>
